<mxfile host="app.diagrams.net" modified="2022-05-30T10:02:42.667Z" agent="5.0 (Windows NT 10.0; Win64; x64) AppleWebKit/537.36 (KHTML, like Gecko) Chrome/101.0.4951.64 Safari/537.36 Edg/101.0.1210.53" etag="h2BwmkV6ESgwkVjYDcis" version="18.1.3" type="github">
  <diagram id="NUHIMUxCn2_XNuRgG9vf" name="Page-1">
    <mxGraphModel dx="865" dy="473" grid="1" gridSize="10" guides="1" tooltips="1" connect="1" arrows="1" fold="1" page="1" pageScale="1" pageWidth="827" pageHeight="1169" math="0" shadow="0">
      <root>
        <mxCell id="0" />
        <mxCell id="1" parent="0" />
        <mxCell id="em9OLweFS1DrOcRNPZVF-58" value="" style="group;fontFamily=Times New Roman;" parent="1" vertex="1" connectable="0">
          <mxGeometry x="280" y="80" width="200" height="40" as="geometry" />
        </mxCell>
        <mxCell id="em9OLweFS1DrOcRNPZVF-59" value="" style="group" parent="em9OLweFS1DrOcRNPZVF-58" vertex="1" connectable="0">
          <mxGeometry y="20" width="200" height="20" as="geometry" />
        </mxCell>
        <mxCell id="em9OLweFS1DrOcRNPZVF-60" value="" style="rounded=0;whiteSpace=wrap;html=1;fillColor=#f9f7ed;strokeColor=#36393d;" parent="em9OLweFS1DrOcRNPZVF-59" vertex="1">
          <mxGeometry width="200" height="20" as="geometry" />
        </mxCell>
        <mxCell id="em9OLweFS1DrOcRNPZVF-61" value="" style="rounded=0;whiteSpace=wrap;html=1;fillColor=#f9f7ed;strokeColor=#36393d;" parent="em9OLweFS1DrOcRNPZVF-59" vertex="1">
          <mxGeometry width="20" height="20" as="geometry" />
        </mxCell>
        <mxCell id="em9OLweFS1DrOcRNPZVF-62" value="" style="rounded=0;whiteSpace=wrap;html=1;fillColor=#f9f7ed;strokeColor=#36393d;" parent="em9OLweFS1DrOcRNPZVF-59" vertex="1">
          <mxGeometry x="20" width="20" height="20" as="geometry" />
        </mxCell>
        <mxCell id="em9OLweFS1DrOcRNPZVF-63" value="" style="rounded=0;whiteSpace=wrap;html=1;fillColor=#f9f7ed;strokeColor=#36393d;" parent="em9OLweFS1DrOcRNPZVF-59" vertex="1">
          <mxGeometry x="40" width="20" height="20" as="geometry" />
        </mxCell>
        <mxCell id="em9OLweFS1DrOcRNPZVF-64" value="" style="rounded=0;whiteSpace=wrap;html=1;fillColor=#f9f7ed;strokeColor=#36393d;" parent="em9OLweFS1DrOcRNPZVF-59" vertex="1">
          <mxGeometry x="60" width="20" height="20" as="geometry" />
        </mxCell>
        <mxCell id="em9OLweFS1DrOcRNPZVF-65" value="" style="rounded=0;whiteSpace=wrap;html=1;fillColor=#f9f7ed;strokeColor=#36393d;" parent="em9OLweFS1DrOcRNPZVF-59" vertex="1">
          <mxGeometry x="80" width="20" height="20" as="geometry" />
        </mxCell>
        <mxCell id="em9OLweFS1DrOcRNPZVF-66" value="..." style="rounded=0;whiteSpace=wrap;html=1;fillColor=#f9f7ed;strokeColor=#36393d;" parent="em9OLweFS1DrOcRNPZVF-59" vertex="1">
          <mxGeometry x="100" width="60" height="20" as="geometry" />
        </mxCell>
        <mxCell id="em9OLweFS1DrOcRNPZVF-67" value="" style="rounded=0;whiteSpace=wrap;html=1;fillColor=#f9f7ed;strokeColor=#36393d;" parent="em9OLweFS1DrOcRNPZVF-59" vertex="1">
          <mxGeometry x="160" width="20" height="20" as="geometry" />
        </mxCell>
        <mxCell id="em9OLweFS1DrOcRNPZVF-68" value="" style="rounded=0;whiteSpace=wrap;html=1;fillColor=#f9f7ed;strokeColor=#36393d;" parent="em9OLweFS1DrOcRNPZVF-59" vertex="1">
          <mxGeometry x="180" width="20" height="20" as="geometry" />
        </mxCell>
        <mxCell id="em9OLweFS1DrOcRNPZVF-69" value="&lt;font style=&quot;font-size: 20px;&quot; face=&quot;Times New Roman&quot;&gt;&lt;i&gt;same as Y&lt;/i&gt;&lt;/font&gt;" style="text;html=1;align=center;verticalAlign=middle;resizable=0;points=[];autosize=1;strokeColor=none;fillColor=none;" parent="em9OLweFS1DrOcRNPZVF-58" vertex="1">
          <mxGeometry x="50" width="100" height="20" as="geometry" />
        </mxCell>
        <mxCell id="em9OLweFS1DrOcRNPZVF-71" value="" style="group" parent="1" vertex="1" connectable="0">
          <mxGeometry x="40" y="200" width="200" height="40" as="geometry" />
        </mxCell>
        <mxCell id="em9OLweFS1DrOcRNPZVF-72" value="" style="group" parent="em9OLweFS1DrOcRNPZVF-71" vertex="1" connectable="0">
          <mxGeometry y="20" width="200" height="20" as="geometry" />
        </mxCell>
        <mxCell id="em9OLweFS1DrOcRNPZVF-73" value="" style="rounded=0;whiteSpace=wrap;html=1;fillColor=#f9f7ed;strokeColor=#36393d;" parent="em9OLweFS1DrOcRNPZVF-72" vertex="1">
          <mxGeometry width="200" height="20" as="geometry" />
        </mxCell>
        <mxCell id="em9OLweFS1DrOcRNPZVF-74" value="" style="rounded=0;whiteSpace=wrap;html=1;fillColor=#f9f7ed;strokeColor=#36393d;" parent="em9OLweFS1DrOcRNPZVF-72" vertex="1">
          <mxGeometry width="20" height="20" as="geometry" />
        </mxCell>
        <mxCell id="em9OLweFS1DrOcRNPZVF-75" value="" style="rounded=0;whiteSpace=wrap;html=1;fillColor=#f9f7ed;strokeColor=#36393d;" parent="em9OLweFS1DrOcRNPZVF-72" vertex="1">
          <mxGeometry x="20" width="20" height="20" as="geometry" />
        </mxCell>
        <mxCell id="em9OLweFS1DrOcRNPZVF-76" value="" style="rounded=0;whiteSpace=wrap;html=1;fillColor=#f9f7ed;strokeColor=#36393d;" parent="em9OLweFS1DrOcRNPZVF-72" vertex="1">
          <mxGeometry x="40" width="20" height="20" as="geometry" />
        </mxCell>
        <mxCell id="em9OLweFS1DrOcRNPZVF-77" value="" style="rounded=0;whiteSpace=wrap;html=1;fillColor=#f9f7ed;strokeColor=#36393d;" parent="em9OLweFS1DrOcRNPZVF-72" vertex="1">
          <mxGeometry x="60" width="20" height="20" as="geometry" />
        </mxCell>
        <mxCell id="em9OLweFS1DrOcRNPZVF-78" value="" style="rounded=0;whiteSpace=wrap;html=1;fillColor=#f9f7ed;strokeColor=#36393d;" parent="em9OLweFS1DrOcRNPZVF-72" vertex="1">
          <mxGeometry x="80" width="20" height="20" as="geometry" />
        </mxCell>
        <mxCell id="em9OLweFS1DrOcRNPZVF-79" value="..." style="rounded=0;whiteSpace=wrap;html=1;fillColor=#f9f7ed;strokeColor=#36393d;" parent="em9OLweFS1DrOcRNPZVF-72" vertex="1">
          <mxGeometry x="100" width="60" height="20" as="geometry" />
        </mxCell>
        <mxCell id="em9OLweFS1DrOcRNPZVF-80" value="" style="rounded=0;whiteSpace=wrap;html=1;fillColor=#f9f7ed;strokeColor=#36393d;" parent="em9OLweFS1DrOcRNPZVF-72" vertex="1">
          <mxGeometry x="160" width="20" height="20" as="geometry" />
        </mxCell>
        <mxCell id="em9OLweFS1DrOcRNPZVF-81" value="" style="rounded=0;whiteSpace=wrap;html=1;fillColor=#f9f7ed;strokeColor=#36393d;" parent="em9OLweFS1DrOcRNPZVF-72" vertex="1">
          <mxGeometry x="180" width="20" height="20" as="geometry" />
        </mxCell>
        <mxCell id="em9OLweFS1DrOcRNPZVF-82" value="&lt;font style=&quot;font-size: 20px;&quot;&gt;input vector &lt;i&gt;Y&lt;/i&gt;&lt;/font&gt;" style="text;html=1;align=center;verticalAlign=middle;resizable=0;points=[];autosize=1;strokeColor=none;fillColor=none;fontFamily=Times New Roman;fontSize=20;" parent="em9OLweFS1DrOcRNPZVF-71" vertex="1">
          <mxGeometry x="35" y="-5" width="130" height="30" as="geometry" />
        </mxCell>
        <mxCell id="em9OLweFS1DrOcRNPZVF-45" value="&lt;font style=&quot;font-size: 20px;&quot;&gt;&lt;i&gt;LPSI(S,Y)&lt;/i&gt;&lt;/font&gt;" style="text;html=1;align=center;verticalAlign=middle;resizable=0;points=[];autosize=1;strokeColor=none;fillColor=none;container=0;fontFamily=Times New Roman;fontSize=20;" parent="1" vertex="1">
          <mxGeometry x="335" y="155" width="90" height="30" as="geometry" />
        </mxCell>
        <mxCell id="em9OLweFS1DrOcRNPZVF-36" value="" style="rounded=0;whiteSpace=wrap;html=1;fillColor=#f9f7ed;strokeColor=#36393d;container=0;" parent="1" vertex="1">
          <mxGeometry x="280" y="180" width="200" height="20" as="geometry" />
        </mxCell>
        <mxCell id="em9OLweFS1DrOcRNPZVF-37" value="" style="rounded=0;whiteSpace=wrap;html=1;fillColor=#ffcc99;strokeColor=#36393d;container=0;" parent="1" vertex="1">
          <mxGeometry x="280" y="180" width="20" height="20" as="geometry" />
        </mxCell>
        <mxCell id="em9OLweFS1DrOcRNPZVF-38" value="" style="rounded=0;whiteSpace=wrap;html=1;fillColor=#ffcc99;strokeColor=#36393d;container=0;" parent="1" vertex="1">
          <mxGeometry x="300" y="180" width="20" height="20" as="geometry" />
        </mxCell>
        <mxCell id="em9OLweFS1DrOcRNPZVF-39" value="" style="rounded=0;whiteSpace=wrap;html=1;fillColor=#ffcc99;strokeColor=#36393d;container=0;" parent="1" vertex="1">
          <mxGeometry x="320" y="180" width="20" height="20" as="geometry" />
        </mxCell>
        <mxCell id="em9OLweFS1DrOcRNPZVF-40" value="" style="rounded=0;whiteSpace=wrap;html=1;fillColor=#ffcc99;strokeColor=#36393d;container=0;" parent="1" vertex="1">
          <mxGeometry x="340" y="180" width="20" height="20" as="geometry" />
        </mxCell>
        <mxCell id="em9OLweFS1DrOcRNPZVF-41" value="" style="rounded=0;whiteSpace=wrap;html=1;fillColor=#ffcc99;strokeColor=#36393d;container=0;" parent="1" vertex="1">
          <mxGeometry x="360" y="180" width="20" height="20" as="geometry" />
        </mxCell>
        <mxCell id="em9OLweFS1DrOcRNPZVF-42" value="..." style="rounded=0;whiteSpace=wrap;html=1;fillColor=#ffcc99;strokeColor=#36393d;container=0;" parent="1" vertex="1">
          <mxGeometry x="380" y="180" width="60" height="20" as="geometry" />
        </mxCell>
        <mxCell id="em9OLweFS1DrOcRNPZVF-43" value="" style="rounded=0;whiteSpace=wrap;html=1;fillColor=#ffcc99;strokeColor=#36393d;container=0;" parent="1" vertex="1">
          <mxGeometry x="440" y="180" width="20" height="20" as="geometry" />
        </mxCell>
        <mxCell id="em9OLweFS1DrOcRNPZVF-139" style="edgeStyle=none;rounded=0;orthogonalLoop=1;jettySize=auto;html=1;fontFamily=Times New Roman;" parent="1" source="em9OLweFS1DrOcRNPZVF-44" edge="1">
          <mxGeometry relative="1" as="geometry">
            <mxPoint x="550" y="230" as="targetPoint" />
          </mxGeometry>
        </mxCell>
        <mxCell id="em9OLweFS1DrOcRNPZVF-44" value="" style="rounded=0;whiteSpace=wrap;html=1;fillColor=#ffcc99;strokeColor=#36393d;container=0;" parent="1" vertex="1">
          <mxGeometry x="460" y="180" width="20" height="20" as="geometry" />
        </mxCell>
        <mxCell id="em9OLweFS1DrOcRNPZVF-31" value="&lt;font style=&quot;font-size: 20px;&quot; face=&quot;Times New Roman&quot;&gt;&lt;i&gt;LPSI(S,Y&lt;span style=&quot;&quot;&gt;&lt;sub&gt;+&lt;/sub&gt;&lt;/span&gt;)&lt;/i&gt;&lt;/font&gt;" style="text;html=1;align=center;verticalAlign=middle;resizable=0;points=[];autosize=1;strokeColor=none;fillColor=none;container=0;" parent="1" vertex="1">
          <mxGeometry x="325" y="235" width="110" height="30" as="geometry" />
        </mxCell>
        <mxCell id="em9OLweFS1DrOcRNPZVF-21" value="" style="rounded=0;whiteSpace=wrap;html=1;fillColor=#f9f7ed;strokeColor=#36393d;container=0;" parent="1" vertex="1">
          <mxGeometry x="280" y="260" width="200" height="20" as="geometry" />
        </mxCell>
        <mxCell id="em9OLweFS1DrOcRNPZVF-22" value="" style="rounded=0;whiteSpace=wrap;html=1;fillColor=#f8cecc;strokeColor=#b85450;container=0;" parent="1" vertex="1">
          <mxGeometry x="280" y="260" width="20" height="20" as="geometry" />
        </mxCell>
        <mxCell id="em9OLweFS1DrOcRNPZVF-23" value="" style="rounded=0;whiteSpace=wrap;html=1;fillColor=#f8cecc;strokeColor=#b85450;container=0;" parent="1" vertex="1">
          <mxGeometry x="300" y="260" width="20" height="20" as="geometry" />
        </mxCell>
        <mxCell id="em9OLweFS1DrOcRNPZVF-24" value="" style="rounded=0;whiteSpace=wrap;html=1;fillColor=#f8cecc;strokeColor=#b85450;container=0;" parent="1" vertex="1">
          <mxGeometry x="320" y="260" width="20" height="20" as="geometry" />
        </mxCell>
        <mxCell id="em9OLweFS1DrOcRNPZVF-25" value="" style="rounded=0;whiteSpace=wrap;html=1;fillColor=#f8cecc;strokeColor=#b85450;container=0;" parent="1" vertex="1">
          <mxGeometry x="340" y="260" width="20" height="20" as="geometry" />
        </mxCell>
        <mxCell id="em9OLweFS1DrOcRNPZVF-26" value="" style="rounded=0;whiteSpace=wrap;html=1;fillColor=#f8cecc;strokeColor=#b85450;container=0;" parent="1" vertex="1">
          <mxGeometry x="360" y="260" width="20" height="20" as="geometry" />
        </mxCell>
        <mxCell id="em9OLweFS1DrOcRNPZVF-27" value="..." style="rounded=0;whiteSpace=wrap;html=1;fillColor=#f8cecc;strokeColor=#b85450;container=0;" parent="1" vertex="1">
          <mxGeometry x="380" y="260" width="60" height="20" as="geometry" />
        </mxCell>
        <mxCell id="em9OLweFS1DrOcRNPZVF-28" value="" style="rounded=0;whiteSpace=wrap;html=1;fillColor=#f8cecc;strokeColor=#b85450;container=0;" parent="1" vertex="1">
          <mxGeometry x="440" y="260" width="20" height="20" as="geometry" />
        </mxCell>
        <mxCell id="em9OLweFS1DrOcRNPZVF-140" style="edgeStyle=none;rounded=0;orthogonalLoop=1;jettySize=auto;html=1;entryX=0;entryY=0.5;entryDx=0;entryDy=0;fontFamily=Times New Roman;" parent="1" source="em9OLweFS1DrOcRNPZVF-29" target="em9OLweFS1DrOcRNPZVF-119" edge="1">
          <mxGeometry relative="1" as="geometry" />
        </mxCell>
        <mxCell id="em9OLweFS1DrOcRNPZVF-29" value="" style="rounded=0;whiteSpace=wrap;html=1;fillColor=#f8cecc;strokeColor=#b85450;container=0;" parent="1" vertex="1">
          <mxGeometry x="460" y="260" width="20" height="20" as="geometry" />
        </mxCell>
        <mxCell id="em9OLweFS1DrOcRNPZVF-57" value="&lt;font style=&quot;font-size: 20px;&quot; face=&quot;Times New Roman&quot;&gt;&lt;i&gt;LPSI(S,Y&lt;sub&gt;-&lt;/sub&gt;)&lt;/i&gt;&lt;/font&gt;" style="text;html=1;align=center;verticalAlign=middle;resizable=0;points=[];autosize=1;strokeColor=none;fillColor=none;container=0;" parent="1" vertex="1">
          <mxGeometry x="330" y="325" width="100" height="30" as="geometry" />
        </mxCell>
        <mxCell id="em9OLweFS1DrOcRNPZVF-48" value="" style="rounded=0;whiteSpace=wrap;html=1;fillColor=#f9f7ed;strokeColor=#36393d;container=0;" parent="1" vertex="1">
          <mxGeometry x="280" y="350" width="200" height="20" as="geometry" />
        </mxCell>
        <mxCell id="em9OLweFS1DrOcRNPZVF-49" value="" style="rounded=0;whiteSpace=wrap;html=1;fillColor=#d5e8d4;strokeColor=#82b366;container=0;" parent="1" vertex="1">
          <mxGeometry x="280" y="350" width="20" height="20" as="geometry" />
        </mxCell>
        <mxCell id="em9OLweFS1DrOcRNPZVF-50" value="" style="rounded=0;whiteSpace=wrap;html=1;fillColor=#d5e8d4;strokeColor=#82b366;container=0;" parent="1" vertex="1">
          <mxGeometry x="300" y="350" width="20" height="20" as="geometry" />
        </mxCell>
        <mxCell id="em9OLweFS1DrOcRNPZVF-51" value="" style="rounded=0;whiteSpace=wrap;html=1;fillColor=#d5e8d4;strokeColor=#82b366;container=0;" parent="1" vertex="1">
          <mxGeometry x="320" y="350" width="20" height="20" as="geometry" />
        </mxCell>
        <mxCell id="em9OLweFS1DrOcRNPZVF-52" value="" style="rounded=0;whiteSpace=wrap;html=1;fillColor=#d5e8d4;strokeColor=#82b366;container=0;" parent="1" vertex="1">
          <mxGeometry x="340" y="350" width="20" height="20" as="geometry" />
        </mxCell>
        <mxCell id="em9OLweFS1DrOcRNPZVF-53" value="" style="rounded=0;whiteSpace=wrap;html=1;fillColor=#d5e8d4;strokeColor=#82b366;container=0;" parent="1" vertex="1">
          <mxGeometry x="360" y="350" width="20" height="20" as="geometry" />
        </mxCell>
        <mxCell id="em9OLweFS1DrOcRNPZVF-54" value="..." style="rounded=0;whiteSpace=wrap;html=1;fillColor=#d5e8d4;strokeColor=#82b366;container=0;" parent="1" vertex="1">
          <mxGeometry x="380" y="350" width="60" height="20" as="geometry" />
        </mxCell>
        <mxCell id="em9OLweFS1DrOcRNPZVF-55" value="" style="rounded=0;whiteSpace=wrap;html=1;fillColor=#d5e8d4;strokeColor=#82b366;container=0;" parent="1" vertex="1">
          <mxGeometry x="440" y="350" width="20" height="20" as="geometry" />
        </mxCell>
        <mxCell id="em9OLweFS1DrOcRNPZVF-141" style="edgeStyle=none;rounded=0;orthogonalLoop=1;jettySize=auto;html=1;entryX=0;entryY=0.5;entryDx=0;entryDy=0;fontFamily=Times New Roman;" parent="1" source="em9OLweFS1DrOcRNPZVF-56" target="em9OLweFS1DrOcRNPZVF-128" edge="1">
          <mxGeometry relative="1" as="geometry" />
        </mxCell>
        <mxCell id="em9OLweFS1DrOcRNPZVF-56" value="" style="rounded=0;whiteSpace=wrap;html=1;fillColor=#d5e8d4;strokeColor=#82b366;container=0;" parent="1" vertex="1">
          <mxGeometry x="460" y="350" width="20" height="20" as="geometry" />
        </mxCell>
        <mxCell id="em9OLweFS1DrOcRNPZVF-95" value="" style="rounded=0;orthogonalLoop=1;jettySize=auto;html=1;fontFamily=Times New Roman;entryX=0;entryY=0.5;entryDx=0;entryDy=0;exitX=0.75;exitY=0;exitDx=0;exitDy=0;" parent="1" source="em9OLweFS1DrOcRNPZVF-81" target="em9OLweFS1DrOcRNPZVF-61" edge="1">
          <mxGeometry relative="1" as="geometry" />
        </mxCell>
        <mxCell id="em9OLweFS1DrOcRNPZVF-96" value="" style="edgeStyle=none;rounded=0;orthogonalLoop=1;jettySize=auto;html=1;fontFamily=Times New Roman;entryX=0;entryY=0.5;entryDx=0;entryDy=0;" parent="1" source="em9OLweFS1DrOcRNPZVF-81" target="em9OLweFS1DrOcRNPZVF-37" edge="1">
          <mxGeometry relative="1" as="geometry" />
        </mxCell>
        <mxCell id="em9OLweFS1DrOcRNPZVF-97" value="" style="edgeStyle=none;rounded=0;orthogonalLoop=1;jettySize=auto;html=1;fontFamily=Times New Roman;entryX=0;entryY=0.5;entryDx=0;entryDy=0;" parent="1" source="em9OLweFS1DrOcRNPZVF-81" target="em9OLweFS1DrOcRNPZVF-22" edge="1">
          <mxGeometry relative="1" as="geometry" />
        </mxCell>
        <mxCell id="em9OLweFS1DrOcRNPZVF-98" value="" style="edgeStyle=none;rounded=0;orthogonalLoop=1;jettySize=auto;html=1;fontFamily=Times New Roman;entryX=0;entryY=0.5;entryDx=0;entryDy=0;" parent="1" source="em9OLweFS1DrOcRNPZVF-81" target="em9OLweFS1DrOcRNPZVF-49" edge="1">
          <mxGeometry relative="1" as="geometry" />
        </mxCell>
        <mxCell id="em9OLweFS1DrOcRNPZVF-136" value="" style="group" parent="1" vertex="1" connectable="0">
          <mxGeometry x="550" y="200" width="200" height="80" as="geometry" />
        </mxCell>
        <mxCell id="em9OLweFS1DrOcRNPZVF-99" value="" style="group" parent="em9OLweFS1DrOcRNPZVF-136" vertex="1" connectable="0">
          <mxGeometry width="200" height="20" as="geometry" />
        </mxCell>
        <mxCell id="em9OLweFS1DrOcRNPZVF-100" value="" style="rounded=0;whiteSpace=wrap;html=1;fillColor=#f9f7ed;strokeColor=#36393d;" parent="em9OLweFS1DrOcRNPZVF-99" vertex="1">
          <mxGeometry width="200" height="20" as="geometry" />
        </mxCell>
        <mxCell id="em9OLweFS1DrOcRNPZVF-101" value="" style="rounded=0;whiteSpace=wrap;html=1;fillColor=#f9f7ed;strokeColor=#36393d;" parent="em9OLweFS1DrOcRNPZVF-99" vertex="1">
          <mxGeometry width="20" height="20" as="geometry" />
        </mxCell>
        <mxCell id="em9OLweFS1DrOcRNPZVF-102" value="" style="rounded=0;whiteSpace=wrap;html=1;fillColor=#f9f7ed;strokeColor=#36393d;" parent="em9OLweFS1DrOcRNPZVF-99" vertex="1">
          <mxGeometry x="20" width="20" height="20" as="geometry" />
        </mxCell>
        <mxCell id="em9OLweFS1DrOcRNPZVF-103" value="" style="rounded=0;whiteSpace=wrap;html=1;fillColor=#f9f7ed;strokeColor=#36393d;" parent="em9OLweFS1DrOcRNPZVF-99" vertex="1">
          <mxGeometry x="40" width="20" height="20" as="geometry" />
        </mxCell>
        <mxCell id="em9OLweFS1DrOcRNPZVF-104" value="" style="rounded=0;whiteSpace=wrap;html=1;fillColor=#f9f7ed;strokeColor=#36393d;" parent="em9OLweFS1DrOcRNPZVF-99" vertex="1">
          <mxGeometry x="60" width="20" height="20" as="geometry" />
        </mxCell>
        <mxCell id="em9OLweFS1DrOcRNPZVF-105" value="" style="rounded=0;whiteSpace=wrap;html=1;fillColor=#f9f7ed;strokeColor=#36393d;" parent="em9OLweFS1DrOcRNPZVF-99" vertex="1">
          <mxGeometry x="80" width="20" height="20" as="geometry" />
        </mxCell>
        <mxCell id="em9OLweFS1DrOcRNPZVF-106" value="..." style="rounded=0;whiteSpace=wrap;html=1;fillColor=#f9f7ed;strokeColor=#36393d;" parent="em9OLweFS1DrOcRNPZVF-99" vertex="1">
          <mxGeometry x="100" width="60" height="20" as="geometry" />
        </mxCell>
        <mxCell id="em9OLweFS1DrOcRNPZVF-107" value="" style="rounded=0;whiteSpace=wrap;html=1;fillColor=#f9f7ed;strokeColor=#36393d;" parent="em9OLweFS1DrOcRNPZVF-99" vertex="1">
          <mxGeometry x="160" width="20" height="20" as="geometry" />
        </mxCell>
        <mxCell id="em9OLweFS1DrOcRNPZVF-108" value="" style="rounded=0;whiteSpace=wrap;html=1;fillColor=#f9f7ed;strokeColor=#36393d;" parent="em9OLweFS1DrOcRNPZVF-99" vertex="1">
          <mxGeometry x="180" width="20" height="20" as="geometry" />
        </mxCell>
        <mxCell id="em9OLweFS1DrOcRNPZVF-109" value="" style="rounded=0;whiteSpace=wrap;html=1;fillColor=#f9f7ed;strokeColor=#36393d;container=0;" parent="em9OLweFS1DrOcRNPZVF-136" vertex="1">
          <mxGeometry y="20" width="200" height="20" as="geometry" />
        </mxCell>
        <mxCell id="em9OLweFS1DrOcRNPZVF-110" value="" style="rounded=0;whiteSpace=wrap;html=1;fillColor=#ffcc99;strokeColor=#36393d;container=0;" parent="em9OLweFS1DrOcRNPZVF-136" vertex="1">
          <mxGeometry y="20" width="20" height="20" as="geometry" />
        </mxCell>
        <mxCell id="em9OLweFS1DrOcRNPZVF-111" value="" style="rounded=0;whiteSpace=wrap;html=1;fillColor=#ffcc99;strokeColor=#36393d;container=0;" parent="em9OLweFS1DrOcRNPZVF-136" vertex="1">
          <mxGeometry x="20" y="20" width="20" height="20" as="geometry" />
        </mxCell>
        <mxCell id="em9OLweFS1DrOcRNPZVF-112" value="" style="rounded=0;whiteSpace=wrap;html=1;fillColor=#ffcc99;strokeColor=#36393d;container=0;" parent="em9OLweFS1DrOcRNPZVF-136" vertex="1">
          <mxGeometry x="40" y="20" width="20" height="20" as="geometry" />
        </mxCell>
        <mxCell id="em9OLweFS1DrOcRNPZVF-113" value="" style="rounded=0;whiteSpace=wrap;html=1;fillColor=#ffcc99;strokeColor=#36393d;container=0;" parent="em9OLweFS1DrOcRNPZVF-136" vertex="1">
          <mxGeometry x="60" y="20" width="20" height="20" as="geometry" />
        </mxCell>
        <mxCell id="em9OLweFS1DrOcRNPZVF-114" value="" style="rounded=0;whiteSpace=wrap;html=1;fillColor=#ffcc99;strokeColor=#36393d;container=0;" parent="em9OLweFS1DrOcRNPZVF-136" vertex="1">
          <mxGeometry x="80" y="20" width="20" height="20" as="geometry" />
        </mxCell>
        <mxCell id="em9OLweFS1DrOcRNPZVF-115" value="..." style="rounded=0;whiteSpace=wrap;html=1;fillColor=#ffcc99;strokeColor=#36393d;container=0;" parent="em9OLweFS1DrOcRNPZVF-136" vertex="1">
          <mxGeometry x="100" y="20" width="60" height="20" as="geometry" />
        </mxCell>
        <mxCell id="em9OLweFS1DrOcRNPZVF-116" value="" style="rounded=0;whiteSpace=wrap;html=1;fillColor=#ffcc99;strokeColor=#36393d;container=0;" parent="em9OLweFS1DrOcRNPZVF-136" vertex="1">
          <mxGeometry x="160" y="20" width="20" height="20" as="geometry" />
        </mxCell>
        <mxCell id="em9OLweFS1DrOcRNPZVF-117" value="" style="rounded=0;whiteSpace=wrap;html=1;fillColor=#ffcc99;strokeColor=#36393d;container=0;" parent="em9OLweFS1DrOcRNPZVF-136" vertex="1">
          <mxGeometry x="180" y="20" width="20" height="20" as="geometry" />
        </mxCell>
        <mxCell id="em9OLweFS1DrOcRNPZVF-118" value="" style="rounded=0;whiteSpace=wrap;html=1;fillColor=#f9f7ed;strokeColor=#36393d;container=0;" parent="em9OLweFS1DrOcRNPZVF-136" vertex="1">
          <mxGeometry y="40" width="200" height="20" as="geometry" />
        </mxCell>
        <mxCell id="em9OLweFS1DrOcRNPZVF-119" value="" style="rounded=0;whiteSpace=wrap;html=1;fillColor=#f8cecc;strokeColor=#b85450;container=0;" parent="em9OLweFS1DrOcRNPZVF-136" vertex="1">
          <mxGeometry y="40" width="20" height="20" as="geometry" />
        </mxCell>
        <mxCell id="em9OLweFS1DrOcRNPZVF-120" value="" style="rounded=0;whiteSpace=wrap;html=1;fillColor=#f8cecc;strokeColor=#b85450;container=0;" parent="em9OLweFS1DrOcRNPZVF-136" vertex="1">
          <mxGeometry x="20" y="40" width="20" height="20" as="geometry" />
        </mxCell>
        <mxCell id="em9OLweFS1DrOcRNPZVF-121" value="" style="rounded=0;whiteSpace=wrap;html=1;fillColor=#f8cecc;strokeColor=#b85450;container=0;" parent="em9OLweFS1DrOcRNPZVF-136" vertex="1">
          <mxGeometry x="40" y="40" width="20" height="20" as="geometry" />
        </mxCell>
        <mxCell id="em9OLweFS1DrOcRNPZVF-122" value="" style="rounded=0;whiteSpace=wrap;html=1;fillColor=#f8cecc;strokeColor=#b85450;container=0;" parent="em9OLweFS1DrOcRNPZVF-136" vertex="1">
          <mxGeometry x="60" y="40" width="20" height="20" as="geometry" />
        </mxCell>
        <mxCell id="em9OLweFS1DrOcRNPZVF-123" value="" style="rounded=0;whiteSpace=wrap;html=1;fillColor=#f8cecc;strokeColor=#b85450;container=0;" parent="em9OLweFS1DrOcRNPZVF-136" vertex="1">
          <mxGeometry x="80" y="40" width="20" height="20" as="geometry" />
        </mxCell>
        <mxCell id="em9OLweFS1DrOcRNPZVF-124" value="..." style="rounded=0;whiteSpace=wrap;html=1;fillColor=#f8cecc;strokeColor=#b85450;container=0;" parent="em9OLweFS1DrOcRNPZVF-136" vertex="1">
          <mxGeometry x="100" y="40" width="60" height="20" as="geometry" />
        </mxCell>
        <mxCell id="em9OLweFS1DrOcRNPZVF-125" value="" style="rounded=0;whiteSpace=wrap;html=1;fillColor=#f8cecc;strokeColor=#b85450;container=0;" parent="em9OLweFS1DrOcRNPZVF-136" vertex="1">
          <mxGeometry x="160" y="40" width="20" height="20" as="geometry" />
        </mxCell>
        <mxCell id="em9OLweFS1DrOcRNPZVF-126" value="" style="rounded=0;whiteSpace=wrap;html=1;fillColor=#f8cecc;strokeColor=#b85450;container=0;" parent="em9OLweFS1DrOcRNPZVF-136" vertex="1">
          <mxGeometry x="180" y="40" width="20" height="20" as="geometry" />
        </mxCell>
        <mxCell id="em9OLweFS1DrOcRNPZVF-127" value="" style="rounded=0;whiteSpace=wrap;html=1;fillColor=#f9f7ed;strokeColor=#36393d;container=0;" parent="em9OLweFS1DrOcRNPZVF-136" vertex="1">
          <mxGeometry y="60" width="200" height="20" as="geometry" />
        </mxCell>
        <mxCell id="em9OLweFS1DrOcRNPZVF-128" value="" style="rounded=0;whiteSpace=wrap;html=1;fillColor=#d5e8d4;strokeColor=#82b366;container=0;" parent="em9OLweFS1DrOcRNPZVF-136" vertex="1">
          <mxGeometry y="60" width="20" height="20" as="geometry" />
        </mxCell>
        <mxCell id="em9OLweFS1DrOcRNPZVF-129" value="" style="rounded=0;whiteSpace=wrap;html=1;fillColor=#d5e8d4;strokeColor=#82b366;container=0;" parent="em9OLweFS1DrOcRNPZVF-136" vertex="1">
          <mxGeometry x="20" y="60" width="20" height="20" as="geometry" />
        </mxCell>
        <mxCell id="em9OLweFS1DrOcRNPZVF-130" value="" style="rounded=0;whiteSpace=wrap;html=1;fillColor=#d5e8d4;strokeColor=#82b366;container=0;" parent="em9OLweFS1DrOcRNPZVF-136" vertex="1">
          <mxGeometry x="40" y="60" width="20" height="20" as="geometry" />
        </mxCell>
        <mxCell id="em9OLweFS1DrOcRNPZVF-131" value="" style="rounded=0;whiteSpace=wrap;html=1;fillColor=#d5e8d4;strokeColor=#82b366;container=0;" parent="em9OLweFS1DrOcRNPZVF-136" vertex="1">
          <mxGeometry x="60" y="60" width="20" height="20" as="geometry" />
        </mxCell>
        <mxCell id="em9OLweFS1DrOcRNPZVF-132" value="" style="rounded=0;whiteSpace=wrap;html=1;fillColor=#d5e8d4;strokeColor=#82b366;container=0;" parent="em9OLweFS1DrOcRNPZVF-136" vertex="1">
          <mxGeometry x="80" y="60" width="20" height="20" as="geometry" />
        </mxCell>
        <mxCell id="em9OLweFS1DrOcRNPZVF-133" value="..." style="rounded=0;whiteSpace=wrap;html=1;fillColor=#d5e8d4;strokeColor=#82b366;container=0;" parent="em9OLweFS1DrOcRNPZVF-136" vertex="1">
          <mxGeometry x="100" y="60" width="60" height="20" as="geometry" />
        </mxCell>
        <mxCell id="em9OLweFS1DrOcRNPZVF-134" value="" style="rounded=0;whiteSpace=wrap;html=1;fillColor=#d5e8d4;strokeColor=#82b366;container=0;" parent="em9OLweFS1DrOcRNPZVF-136" vertex="1">
          <mxGeometry x="160" y="60" width="20" height="20" as="geometry" />
        </mxCell>
        <mxCell id="em9OLweFS1DrOcRNPZVF-135" value="" style="rounded=0;whiteSpace=wrap;html=1;fillColor=#d5e8d4;strokeColor=#82b366;container=0;" parent="em9OLweFS1DrOcRNPZVF-136" vertex="1">
          <mxGeometry x="180" y="60" width="20" height="20" as="geometry" />
        </mxCell>
        <mxCell id="em9OLweFS1DrOcRNPZVF-137" value="&lt;font style=&quot;font-size: 20px;&quot;&gt;extended input &lt;i&gt;Y&lt;sub&gt;in&lt;/sub&gt;&lt;span style=&quot;background-color: initial;&quot;&gt;∈R&lt;sup&gt;4×N&lt;/sup&gt;&lt;/span&gt;&lt;/i&gt;&lt;/font&gt;" style="text;html=1;align=center;verticalAlign=middle;resizable=0;points=[];autosize=1;strokeColor=none;fillColor=none;fontFamily=Times New Roman;" parent="1" vertex="1">
          <mxGeometry x="540" y="170" width="230" height="30" as="geometry" />
        </mxCell>
        <mxCell id="em9OLweFS1DrOcRNPZVF-138" style="edgeStyle=none;rounded=0;orthogonalLoop=1;jettySize=auto;html=1;entryX=0;entryY=0.5;entryDx=0;entryDy=0;fontFamily=Times New Roman;" parent="1" source="em9OLweFS1DrOcRNPZVF-68" target="em9OLweFS1DrOcRNPZVF-101" edge="1">
          <mxGeometry relative="1" as="geometry" />
        </mxCell>
      </root>
    </mxGraphModel>
  </diagram>
</mxfile>
